# xmcd CD database file
#
# Track frame offsets:
#	150
#	13532
#	28565
#	44217
#	60500
#	77390
#	90397
#	106422
#	124095
#	143710
#	156390
#	171025
#	198055
#	211267
#	225567
#	237335
#
# Disc length: 3294 seconds
#
# Revision: 0
# Processed by: cddbd v1.4PL0 Copyright (c) Steve Scherf et al.
# Submitted via: CDex 1.50beta10
#
DISCID=c60cdc10
DTITLE=Helen Merrill - You'd be so nice to come Home to
DYEAR=1900
DGENRE=Jazz
TTITLE0=Bye bye Blackbird
TTITLE1=Softly, as in a morning sunrise
TTITLE2=Summertime
TTITLE3=Just you, just me
TTITLE4=Easy come easy do
TTITLE5=Black is the color of my true love's hair
TTITLE6=all of you
TTITLE7=Falling in love with love
TTITLE8=You'd be so nice to come Home to
TTITLE9=Let me love you
TTITLE10='s wonderful
TTITLE11=Yesterdays
TTITLE12=Dream of you
TTITLE13=Lazy afternoon
TTITLE14=People will say we're in love
TTITLE15=I remember you
EXTD=
EXTT0=
EXTT1=
EXTT2=
EXTT3=
EXTT4=
EXTT5=
EXTT6=
EXTT7=
EXTT8=
EXTT9=
EXTT10=
EXTT11=
EXTT12=
EXTT13=
EXTT14=
EXTT15=
PLAYORDER=
